<?xml version="1.0" standalone="no"?><!DOCTYPE svg PUBLIC "-//W3C//DTD SVG 1.1//EN" "http://www.w3.org/Graphics/SVG/1.1/DTD/svg11.dtd"><svg t="1508392883353" class="icon" style="" viewBox="0 0 1024 1024" version="1.1" xmlns="http://www.w3.org/2000/svg" p-id="2638" xmlns:xlink="http://www.w3.org/1999/xlink" width="200" height="200"><defs><style type="text/css"></style></defs><path d="M510.737752 130.057101c-211.072253 0-382.771777 171.739433-382.771777 382.768707 0 211.072253 171.699524 382.768707 382.771777 382.768707 211.070206 0 382.76973-171.696454 382.76973-382.768707C893.507482 301.796534 721.807958 130.057101 510.737752 130.057101zM510.737752 810.535257c-164.138314 0-297.711496-133.528156-297.711496-297.709449 0-164.138314 133.573181-297.709449 297.711496-297.709449s297.709449 133.570111 297.709449 297.709449C808.447201 677.007101 674.877089 810.535257 510.737752 810.535257z" p-id="2639" fill="#d81e06"></path><path d="M553.268404 555.355437l106.324584 0c23.506367 0 42.529629-19.023262 42.529629-42.529629 0-23.466458-19.023262-42.529629-42.529629-42.529629L553.268404 470.296179" p-id="2640" fill="#d81e06"></path><path d="M595.798033 470.296179 361.883539 470.296179c-23.509437 0-42.529629 19.063171-42.529629 42.529629 0 23.506367 19.020192 42.529629 42.529629 42.529629l233.913471 0" p-id="2641" fill="#d81e06"></path></svg>