<?xml version="1.0" standalone="no"?><!DOCTYPE svg PUBLIC "-//W3C//DTD SVG 1.1//EN" "http://www.w3.org/Graphics/SVG/1.1/DTD/svg11.dtd"><svg t="1493359030096" class="icon" style="" viewBox="0 0 1024 1024" version="1.1" xmlns="http://www.w3.org/2000/svg" p-id="1074" xmlns:xlink="http://www.w3.org/1999/xlink" width="64" height="64"><defs><style type="text/css"></style></defs><path d="M689.12 236.16l0-67.648 334.88 0 0 67.648-334.88 0zM561.024 459.136c-21.792 56.864-43.104 104.864-71.2 135.584 109.824 20.064 183.904 78.432 233.888 101.056 103.136 46.848 103.648 98.336 103.648 98.336l0 86.784-827.36 0.16 0-86.976c0 0 0.576-51.296 103.296-98.144 49.664-22.528 123.2-80.608 232.064-100.928-27.936-30.624-48.928-78.56-70.88-135.712-12.704-32.96-10.624-61.152-10.624-101.28 0-29.408-5.44-76.608 1.632-102.752 24.192-88.096 85.408-112.448 157.184-112.448 71.648 0 132.896 24.224 157.056 112.256 7.232 26.048 1.664 73.44 1.664 102.944 0 40.064 2.272 68.16-10.432 101.056zM689.12 328.672l197.76 0 0 67.648-197.76 0 0-67.648zM968.608 555.008l-279.52 0 0-67.648 279.52 0 0 67.648z" p-id="1075"></path></svg>